<svg xmlns="http://www.w3.org/2000/svg" width="179" height="40.873" viewBox="0 0 179 40.873"><defs><style>.a{fill:#fff;}</style></defs><g transform="translate(-29.471 -36.428)"><path class="a" d="M63.87,44.486h4.521v18.28H63.87Zm6.314,11.378c0-4.521,2.773-7.219,7.053-7.219s7.053,2.7,7.053,7.219S81.578,63.1,77.237,63.1,70.184,60.46,70.184,55.864Zm9.57,0c0-2.487-.98-3.948-2.517-3.948s-2.5,1.507-2.5,3.948.949,3.918,2.5,3.918,2.517-1.386,2.517-3.9Zm6.239,7.791h4.34a2.336,2.336,0,0,0,2.441,1.356c1.718,0,2.622-.934,2.622-2.291V60.189h-.09a4.28,4.28,0,0,1-4.114,2.472c-3.3,0-5.486-2.517-5.486-6.842s2.08-7.053,5.546-7.053a4.325,4.325,0,0,1,4.159,2.652h0V48.9h4.521V62.615c0,3.3-2.909,5.35-7.2,5.35-3.994,0-6.48-1.793-6.736-4.3Zm9.419-7.806c0-2.2-1.01-3.587-2.607-3.587s-2.577,1.371-2.577,3.587.964,3.466,2.577,3.466,2.607-1.221,2.607-3.451Zm6.224,0c0-4.521,2.773-7.219,7.053-7.219s7.068,2.7,7.068,7.219-2.713,7.234-7.068,7.234-7.053-2.622-7.053-7.219Zm9.57,0c0-2.487-.98-3.948-2.517-3.948s-2.426,1.522-2.426,3.979.949,3.918,2.487,3.918,2.456-1.4,2.456-3.918Zm6.269-10.233a2.306,2.306,0,1,1,2.351,2.245,2.2,2.2,0,0,1-2.351-2.215Zm0,3.315H122V62.766h-4.521Zm20.933,6.917c0,4.521-2,7.1-5.44,7.1a4.31,4.31,0,0,1-4.22-2.562h-.09V67.2h-4.521V48.9h4.521v2.472h.09a4.325,4.325,0,0,1,4.19-2.667c3.466.06,5.531,2.652,5.531,7.173Zm-4.521,0c0-2.2-1.01-3.6-2.592-3.6s-2.592,1.417-2.607,3.6,1.025,3.587,2.607,3.587,2.592-1.371,2.592-3.557Zm12.282-7.234c3.753,0,6.028,1.778,6.134,4.627h-4.114c0-.98-.814-1.6-2.065-1.6s-1.808.482-1.808,1.191.5.934,1.507,1.145l2.893.588c2.758.588,3.933,1.7,3.933,3.8,0,2.863-2.607,4.7-6.45,4.7s-6.36-1.839-6.556-4.657H144c.136,1.025.949,1.628,2.276,1.628s1.929-.437,1.929-1.16-.422-.874-1.507-1.1l-2.607-.558c-2.7-.558-4.114-1.989-4.114-4.1.03-2.713,2.456-4.476,6.194-4.476Zm21.566,14.121h-4.355V60.159h-.09a3.933,3.933,0,0,1-4.009,2.878,4.807,4.807,0,0,1-5.064-5.2V48.9h4.521v7.9c0,1.643.844,2.517,2.245,2.517a2.306,2.306,0,0,0,2.291-2.607V48.9h4.521ZM169.919,48.9h4.37v2.667h.09a4.009,4.009,0,0,1,3.933-2.924,3.6,3.6,0,0,1,3.843,3.014h.09a4.25,4.25,0,0,1,4.25-3.014,4.385,4.385,0,0,1,4.521,4.7v9.419H186.5V54.553c0-1.507-.678-2.2-1.944-2.2a1.974,1.974,0,0,0-1.974,2.23v8.183h-4.3V54.492c0-1.386-.678-2.14-1.914-2.14a2.019,2.019,0,0,0-2,2.261v8.153h-4.521Z" transform="translate(17.441 3.459)"/><path class="a" d="M68.667,48.773a19.968,19.968,0,0,0-3.014-4.853A20.39,20.39,0,1,0,37.5,73.036a19.727,19.727,0,0,0,4.822,2.758A20.179,20.179,0,0,0,49.965,77.3a20.435,20.435,0,0,0,20.39-20.42,20.179,20.179,0,0,0-1.688-8.108ZM49.95,40.59A16.142,16.142,0,0,1,56.763,42.1h0a6.615,6.615,0,0,1-1.628.467,8.635,8.635,0,0,0-7.309,7.309,4.521,4.521,0,0,1-4.084,3.994,8.635,8.635,0,0,0-7.309,7.309A4.385,4.385,0,0,1,35.242,63.8h0A16.276,16.276,0,0,1,49.965,40.56ZM37.487,67.43c.181-.166.362-.316.543-.5a8.259,8.259,0,0,0,2.441-4.868,4.4,4.4,0,0,1,1.311-2.743,4.265,4.265,0,0,1,2.728-1.3,8.635,8.635,0,0,0,7.309-7.309,4.4,4.4,0,0,1,1.311-2.878,4.325,4.325,0,0,1,2.758-1.251,8.259,8.259,0,0,0,4.521-2.155,15.839,15.839,0,0,1,3.557,4.19,1.3,1.3,0,0,1-.2.211,4.325,4.325,0,0,1-2.728,1.326,8.605,8.605,0,0,0-7.309,7.309,4.521,4.521,0,0,1-4.054,4.039,8.68,8.68,0,0,0-7.354,7.309,4.732,4.732,0,0,1-.738,2.065,16.411,16.411,0,0,1-4.1-3.451ZM49.95,73.247a16.336,16.336,0,0,1-4.521-.633,8.711,8.711,0,0,0,.964-3.014,4.521,4.521,0,0,1,4.039-4.039,8.635,8.635,0,0,0,7.324-7.309A4.521,4.521,0,0,1,61.8,54.214a8.6,8.6,0,0,0,3.858-1.507,16.306,16.306,0,0,1-15.7,20.465Z" transform="translate(0)"/></g></svg>