<svg xmlns="http://www.w3.org/2000/svg" width="86.967" height="90" viewBox="0 0 86.967 90"><defs><style>.a{fill:#1b2c07;}</style></defs><path class="a" d="M87.726,75.977H43.867c-5.529,0-10.294-1.468-13.782-4.243C26.1,68.562,24,63.86,24,58.134a16.377,16.377,0,0,1,5.462-12.541A21.768,21.768,0,0,1,40.52,40.562c.011,0,.015,0,.017-.009a30.16,30.16,0,0,1,9.43-17.933A26.285,26.285,0,0,1,67.484,16,24.947,24.947,0,0,1,82.8,21.092a26.744,26.744,0,0,1,8.5,11.369,24.866,24.866,0,0,1,13.718,6.661,20.646,20.646,0,0,1,5.949,14.962,21.1,21.1,0,0,1-6.935,15.842A24.087,24.087,0,0,1,87.726,75.977ZM91.287,32.46Zm-54.2,61.215,9.325-13.987,4.99,3.327L42.077,97Zm9,9L61.4,79.688l4.99,3.327L51.073,106Zm20.991-9L76.4,79.688l4.99,3.327L72.064,97Zm9,9L91.392,79.688l4.99,3.327L81.06,106Z" transform="translate(-24 -15.999)"/></svg>